<svg width="128" height="128" viewBox="0 0 128 128" fill="none" xmlns="http://www.w3.org/2000/svg">
    <path
        fill-rule="evenodd"
        clip-rule="evenodd"
        d="M64 128C99.3462 128 128 99.3462 128 64C128 28.6538 99.3462 0 64 0C28.6538 0 0 28.6538 0 64C0 99.3462 28.6538 128 64 128ZM76.9333 37.9547C73.5573 37.8 72.544 37.768 64 37.768C55.456 37.768 54.4453 37.8 51.0693 37.952C42.3893 38.3467 38.3493 42.464 37.952 51.0693C37.8 54.4453 37.7653 55.456 37.7653 64C37.7653 72.5467 37.7973 73.5573 37.952 76.9307C38.3467 85.52 42.376 89.6533 51.0693 90.0507C54.4427 90.2053 55.456 90.2373 64 90.2373C72.5493 90.2373 73.5573 90.2053 76.9333 90.0507C85.6133 89.656 89.6533 85.5333 90.0507 76.9333C90.2027 73.56 90.2347 72.5493 90.2347 64.0027C90.2347 55.4587 90.2053 54.4453 90.0507 51.072C89.656 42.464 85.6053 38.3493 76.9333 37.9547ZM50.808 32.192C54.2213 32.0373 55.3093 32 64 32C72.6907 32 73.7813 32.0373 77.1973 32.1947C88.8293 32.728 95.2853 39.1973 95.808 50.808C95.9627 54.2213 96 55.3093 96 64C96 72.6907 95.9627 73.7813 95.8053 77.1947C95.28 88.8267 88.8053 95.2747 77.1947 95.808C73.7813 95.9627 72.6907 96 64 96C55.3093 96 54.2213 95.9627 50.8053 95.808C39.1733 95.2747 32.7253 88.816 32.192 77.1947C32.0373 73.7813 32 72.6907 32 64C32 55.3093 32.0373 54.2213 32.1947 50.8053C32.728 39.1733 39.1867 32.7253 50.808 32.192ZM47.568 64C47.568 54.9253 54.9253 47.568 64 47.568C73.0747 47.568 80.432 54.9253 80.432 64C80.432 73.0773 73.0747 80.4347 64 80.4347C54.9253 80.4347 47.568 73.0747 47.568 64ZM53.3333 64C53.3333 69.8933 58.1093 74.6667 64 74.6667C69.8907 74.6667 74.6667 69.8933 74.6667 64C74.6667 58.1093 69.8907 53.3333 64 53.3333C58.1093 53.3333 53.3333 58.1093 53.3333 64ZM77.24 46.92C77.24 44.8 78.96 43.08 81.0827 43.08C83.2027 43.08 84.92 44.8 84.92 46.92C84.92 49.04 83.2027 50.76 81.0827 50.76C78.96 50.76 77.24 49.04 77.24 46.92Z"
        fill="#202839"/>
</svg>
