<svg width="128" height="128" viewBox="0 0 128 128" fill="none" xmlns="http://www.w3.org/2000/svg">
<path fill-rule="evenodd" clip-rule="evenodd" d="M128 64C128 99.3462 99.3462 128 64 128C28.6538 128 0 99.3462 0 64C0 28.6538 28.6538 0 64 0C99.3462 0 128 28.6538 128 64ZM92.7958 45.9322L86.1746 47.5461C84.7 47.9055 83.1438 47.4886 82.0464 46.44L74.9327 39.6423C74.6313 39.3543 74.1405 39.6377 74.2393 40.0427L76.5693 49.6022C76.9287 51.0768 76.5117 52.633 75.4631 53.7303L68.6655 60.844C68.3776 61.1454 68.6609 61.6363 69.0659 61.5375L78.6254 59.2074C80.1 58.848 81.6561 59.265 82.7535 60.3135L89.8672 67.1112C90.1686 67.3992 90.6594 67.1158 90.5607 66.7108L88.2306 57.1513C87.8712 55.6767 88.2881 54.1206 89.3368 53.0232L94.045 48.096C102.574 64.1827 96.8942 84.2618 80.9972 93.4399C64.7379 102.827 43.9473 97.2564 34.5601 80.9972C25.1727 64.7379 30.7437 43.9473 47.0028 34.5601C62.8999 25.3819 83.1287 30.5028 92.7958 45.9322Z" fill="#202839"/>
</svg>
