<svg width="128" height="128" viewBox="0 0 128 128" fill="none" xmlns="http://www.w3.org/2000/svg">
<path fill-rule="evenodd" clip-rule="evenodd" d="M64 128C99.3462 128 128 99.3462 128 64C128 28.6538 99.3462 0 64 0C28.6538 0 0 28.6538 0 64C0 99.3462 28.6538 128 64 128ZM95.1825 47.3369C98.009 49.4399 100.253 52.409 101.603 55.9119C102.503 58.2462 103 60.8199 103 63.5C103 65.5097 102.721 67.4607 102.201 69.2945C101.681 71.1285 100.922 72.846 99.9665 74.4007C98.0546 77.5098 95.3555 79.9779 92.171 81.463C90.049 82.4526 87.7093 83.0005 85.2728 83C83.5786 83.0005 81.9418 82.7473 80.3881 82.2905C78.8336 81.8339 77.3629 81.1762 75.974 80.3789C73.1944 78.7801 70.7373 76.6378 68.4464 74.2883C66.9197 72.7201 65.4664 71.0545 64.0522 69.3685L63.9994 69.3045C63.9626 69.3484 63.9262 69.3923 63.8898 69.4363C63.8452 69.4901 63.8005 69.544 63.7554 69.5976C61.2329 72.5898 58.5914 75.5149 55.6065 77.9129C53.9001 79.281 52.0751 80.4761 50.0925 81.3689C47.8305 82.3897 45.352 83.0023 42.7274 83C40.9003 83.0002 39.1266 82.6926 37.4595 82.1209C35.7922 81.5492 34.2309 80.7145 32.8175 79.6631C29.9912 77.5601 27.7473 74.591 26.3972 71.0885C25.4974 68.7543 24.9996 66.1806 25 63.5005C24.9998 61.4906 25.2794 59.5396 25.7991 57.7058C26.3189 55.8717 27.0777 54.1543 28.0335 52.5996C29.9454 49.4904 32.6445 47.0223 35.829 45.5372C37.951 44.5474 40.2907 43.9998 42.7272 44.0002C44.4214 43.9998 46.0582 44.2529 47.6119 44.7097C49.1664 45.1663 50.6371 45.8235 52.026 46.6213C54.8056 48.2201 57.2627 50.3624 59.5536 52.7119C61.0803 54.2801 62.5336 55.9458 63.9478 57.6317L64.0006 57.6957C64.0354 57.6541 64.0699 57.6125 64.1043 57.5709C64.1509 57.5146 64.1975 57.4584 64.2446 57.4024C66.7671 54.4102 69.4086 51.4851 72.3935 49.0871C74.0999 47.719 75.9249 46.5239 77.9075 45.6311C80.1695 44.6103 82.648 43.9974 85.2726 44C87.0997 43.9998 88.8734 44.3074 90.5405 44.8791C92.2078 45.4508 93.7691 46.2855 95.1825 47.3369ZM54.7152 68.5868C56.0498 67.2169 57.3873 65.6885 58.7366 64.0797C58.8311 63.9671 58.926 63.8523 59.0208 63.7376C59.0863 63.6583 59.1517 63.5791 59.217 63.5007C59.1493 63.4192 59.0816 63.3374 59.0138 63.2556C58.86 63.07 58.7062 62.8843 58.5531 62.7024C56.1587 59.8539 53.7895 57.2784 51.4294 55.3899C50.0815 54.3084 48.7428 53.4506 47.408 52.8506C45.8785 52.1652 44.3643 51.8027 42.7278 51.8004C41.6223 51.8004 40.5659 51.9849 39.5701 52.3261C38.5744 52.6673 37.6398 53.1664 36.7897 53.7988C35.0884 55.0632 33.7322 56.861 32.9265 58.9552C32.3891 60.3523 32.0916 61.8792 32.0912 63.5002C32.0912 64.7163 32.2589 65.8784 32.5691 66.9737C32.8793 68.0686 33.333 69.0964 33.908 70.0318C35.0574 71.9029 36.6916 73.3948 38.5956 74.2811C39.8659 74.8722 41.254 75.1994 42.7276 75.1999C43.786 75.1994 44.7898 75.0457 45.783 74.7545C46.7753 74.463 47.7575 74.0312 48.7456 73.4642C50.7201 72.3338 52.7139 70.6451 54.7152 68.5868ZM91.211 73.2019C92.9122 71.9375 94.2685 70.1399 95.0742 68.0455C95.6118 66.6479 95.9092 65.121 95.9094 63.5002C95.9094 62.2842 95.7417 61.1221 95.4315 60.0267C95.1213 58.9319 94.6676 57.9041 94.0927 56.9687C92.9432 55.0973 91.309 53.6054 89.405 52.7191C88.1348 52.128 86.7467 51.8008 85.273 51.8004C84.2146 51.8008 83.2108 51.9545 82.2176 52.2457C81.2253 52.5372 80.2431 52.969 79.255 53.5361C77.2805 54.6664 75.2867 56.3552 73.2855 58.4134C71.9509 59.7834 70.6133 61.3117 69.2641 62.9206C69.1647 63.0388 69.065 63.1596 68.9652 63.2805C68.9047 63.3538 68.8441 63.4272 68.7836 63.5C68.8571 63.5884 68.9308 63.6773 69.0044 63.7662C69.1523 63.9448 69.3002 64.1233 69.4475 64.2983C71.842 67.1468 74.2111 69.7223 76.5712 71.6108C77.9192 72.6923 79.2578 73.5501 80.5926 74.1501C82.1221 74.8355 83.6363 75.198 85.2728 75.2003C86.3783 75.2003 87.4348 75.0158 88.4305 74.6746C89.4263 74.3334 90.3609 73.8343 91.211 73.2019Z" fill="black"/>
</svg>
