<svg width="128" height="128" viewBox="0 0 128 128" fill="none" xmlns="http://www.w3.org/2000/svg">
<path fill-rule="evenodd" clip-rule="evenodd" d="M64 128C99.3462 128 128 99.3462 128 64C128 28.6538 99.3462 0 64 0C28.6538 0 0 28.6538 0 64C0 99.3462 28.6538 128 64 128ZM28 64C28 44.1496 44.1494 28 64 28C83.8506 28 100 44.1496 100 64C100 83.8504 83.8506 100 64 100C44.1494 100 28 83.8504 28 64ZM94.1963 63.0775C93.9894 56.2325 91.5012 49.9533 87.4597 44.9784C82.8002 49.2593 77.1264 52.8453 70.609 55.653C71.7412 57.9346 72.8629 60.3488 73.9465 62.8829C79.9309 61.7095 86.7099 61.5276 94.1963 63.0775ZM67.9305 50.5124C73.419 48.2046 78.7791 45.0786 83.4044 40.8568C78.1506 36.4445 71.382 33.7802 64 33.7802C61.8398 33.7802 59.7331 34.0126 57.7 34.4457C60.0479 37.5983 63.9021 43.1457 67.9305 50.5124ZM62.3943 52.5679C57.858 44.3835 53.635 38.631 51.862 36.3335C43.3128 40.0992 36.8309 47.7102 34.6152 56.9662C39.931 56.9081 50.9935 56.2822 62.3943 52.5679ZM33.9821 62.7615C33.9239 62.7615 33.8688 62.7611 33.8118 62.7611C33.7948 63.1727 33.7802 63.5846 33.7802 64C33.7802 71.433 36.4826 78.2429 40.9503 83.5117C43.3633 80.5318 47.7824 75.7123 54.0905 71.3682C57.8522 68.7779 62.6012 66.1691 68.2326 64.3561C67.2234 62.049 66.1826 59.8479 65.1356 57.7612C61.1138 59.1361 56.8276 60.2456 52.3075 61.0698C44.3848 62.5145 37.6552 62.7615 33.9821 62.7615ZM57.5378 76.0132C51.4212 80.1908 47.1928 84.9518 45.1154 87.5675C50.2929 91.7246 56.8588 94.2198 64 94.2198C68.4538 94.2198 72.681 93.2433 76.4913 91.5062C75.1838 83.6948 72.9908 76.3381 70.4221 69.68C65.9949 71.0646 61.6945 73.174 57.5378 76.0132ZM76.1287 68.3094C78.452 74.4742 80.4615 81.2197 81.8091 88.3937C88.0709 83.8096 92.5074 76.8795 93.8156 68.9066C87.7495 67.5441 81.8434 67.3452 76.1287 68.3094Z" fill="black"/>
</svg>
