<svg width="128" height="128" viewBox="0 0 128 128" fill="none" xmlns="http://www.w3.org/2000/svg">
<path fill-rule="evenodd" clip-rule="evenodd" d="M64 128C99.3463 128 128 99.3462 128 64C128 28.6538 99.3463 0 64 0C28.6537 0 0 28.6538 0 64C0 99.3462 28.6537 128 64 128ZM54.2983 89.7101V95.5184C57.05 96.3931 59.9631 96.9056 62.9815 97L65.1378 96.9961C69.004 96.8609 72.6959 96.0397 76.0953 94.6505V85.1989C76.2166 83.7295 76.012 82.2514 75.4962 80.8708C74.9803 79.4902 74.1661 78.2415 73.1122 77.2145C82.7379 76.1366 93 72.5036 93 55.9758C93.0018 51.6691 91.3326 47.5309 88.3463 44.4383C89.6754 40.7457 89.5185 36.6786 87.9087 33.1004C87.9087 33.1004 84.3289 31.9426 75.976 37.4918C68.8089 35.5749 61.2666 35.5749 54.0994 37.4918C45.8658 31.9426 42.1667 33.1004 42.1667 33.1004C40.5569 36.6786 40.4 40.7457 41.7292 44.4383C38.8107 47.5886 37.2273 51.7548 37.3141 56.0557C37.3141 72.5436 47.4967 76.2164 57.2019 77.2943C55.6264 78.8203 54.64 80.8569 54.4177 83.0431C52.2554 84.2433 49.7101 84.5434 47.3297 83.8789C44.9492 83.2144 42.9238 81.6383 41.6895 79.49C40.9811 78.2931 40.012 77.2726 38.8547 76.5051C37.6974 75.7377 36.382 75.2431 35.0071 75.0587C35.0071 75.0587 30.7114 75.0187 34.6889 77.6536C37.0088 79.103 38.7313 81.342 39.5416 83.9613C39.5416 83.9613 42.127 92.3051 54.2983 89.7101Z" fill="black"/>
</svg>
