<svg width="128" height="128" viewBox="0 0 128 128" fill="none" xmlns="http://www.w3.org/2000/svg">
    <path
        fill-rule="evenodd"
        clip-rule="evenodd"
        d="M64 128C99.3462 128 128 99.3462 128 64C128 28.6538 99.3462 0 64 0C28.6538 0 0 28.6538 0 64C0 99.3462 28.6538 128 64 128ZM90.8913 44.8789L96 40.0586V39H78.312L65.7049 69.9531L51.3631 39.0039H32.8098V40.0586L38.7878 47.1445C39.0772 47.4011 39.3009 47.7213 39.4409 48.079C39.5809 48.4367 39.6333 48.8218 39.5936 49.2031V77.0391C39.6794 77.5339 39.6458 78.0417 39.4954 78.5214C39.3451 79.0011 39.0823 79.4394 38.7283 79.8008L32 87.8281V88.8828H51.0615V87.8242L44.3372 79.8008C43.9802 79.4397 43.7114 79.0033 43.5512 78.5249C43.3909 78.0464 43.3434 77.5383 43.4123 77.0391V52.9648L60.1476 88.8828H62.0927L76.4622 52.9648V81.5977C76.4622 82.3594 76.4622 82.5039 75.9541 83.0039L70.7858 87.9453V89H95.8809V87.9414L90.8913 83.1211C90.6752 82.9591 90.5082 82.7422 90.4082 82.4937C90.3081 82.2452 90.2789 81.9746 90.3236 81.7109V46.293C90.2782 46.0287 90.307 45.7573 90.4071 45.508C90.5071 45.2588 90.6746 45.0412 90.8913 44.8789Z"
        fill="#202839"/>
</svg>
