<svg width="128" height="128" viewBox="0 0 128 128" fill="none" xmlns="http://www.w3.org/2000/svg">
<path fill-rule="evenodd" clip-rule="evenodd" d="M64 128C99.3462 128 128 99.3462 128 64C128 28.6538 99.3462 0 64 0C28.6538 0 0 28.6538 0 64C0 99.3462 28.6538 128 64 128ZM96.9684 45.1737C96.979 45.1691 96.9895 45.1644 97 45.1598L96.9905 45.1407C96.9831 45.1517 96.9758 45.1627 96.9684 45.1737ZM96.9684 45.1737C94.6191 46.207 92.0996 46.9088 89.4571 47.2226C92.1687 45.5991 94.2502 43.0206 95.2241 39.955C92.6843 41.4639 89.8772 42.5526 86.8887 43.1447C84.4922 40.5949 81.0835 39 77.3026 39C70.0556 39 64.1741 44.8828 64.1741 52.1313C64.1741 53.1627 64.2887 54.1655 64.5178 55.1205C53.6045 54.5761 43.9324 49.3427 37.4589 41.3971C36.3322 43.3357 35.683 45.5895 35.683 47.9961C35.683 52.5515 38.0031 56.5721 41.5263 58.9214C39.378 58.8545 37.3539 58.2624 35.5779 57.2788V57.4411C35.5779 63.8015 40.1037 69.1113 46.1094 70.3146C45.0113 70.6106 43.8465 70.773 42.653 70.773C41.8032 70.773 40.9821 70.687 40.1801 70.5343C41.851 75.7486 46.7013 79.5495 52.4397 79.6545C47.9426 83.1785 42.2902 85.2795 36.1317 85.2795C35.0719 85.2795 34.0312 85.2127 33 85.0981C38.8052 88.8226 45.7083 91 53.1271 91C77.2739 91 90.4787 70.9927 90.4787 53.6402C90.4787 53.0672 90.4692 52.5038 90.4406 51.9403C92.9982 50.0953 95.215 47.7958 96.9684 45.1737Z" fill="black"/>
</svg>
